<svg xmlns="http://www.w3.org/2000/svg" viewBox="0 0 14 14" shape-rendering="crispEdges">
<rect x="2" y="1" width="2" height="1" fill="#20242e"/>
<rect x="10" y="1" width="2" height="1" fill="#20242e"/>
<rect x="1" y="2" width="1" height="1" fill="#20242e"/>
<rect x="2" y="2" width="2" height="1" fill="#e88a3e"/>
<rect x="4" y="2" width="1" height="1" fill="#20242e"/>
<rect x="9" y="2" width="1" height="1" fill="#20242e"/>
<rect x="10" y="2" width="2" height="1" fill="#e88a3e"/>
<rect x="12" y="2" width="1" height="1" fill="#20242e"/>
<rect x="0" y="3" width="1" height="1" fill="#20242e"/>
<rect x="1" y="3" width="4" height="1" fill="#e88a3e"/>
<rect x="5" y="3" width="1" height="1" fill="#20242e"/>
<rect x="8" y="3" width="1" height="1" fill="#20242e"/>
<rect x="9" y="3" width="4" height="1" fill="#e88a3e"/>
<rect x="13" y="3" width="1" height="1" fill="#20242e"/>
<rect x="0" y="4" width="1" height="1" fill="#20242e"/>
<rect x="1" y="4" width="2" height="1" fill="#e88a3e"/>
<rect x="3" y="4" width="1" height="1" fill="#20242e"/>
<rect x="4" y="4" width="1" height="1" fill="#e88a3e"/>
<rect x="5" y="4" width="1" height="1" fill="#20242e"/>
<rect x="8" y="4" width="1" height="1" fill="#20242e"/>
<rect x="9" y="4" width="1" height="1" fill="#e88a3e"/>
<rect x="10" y="4" width="1" height="1" fill="#20242e"/>
<rect x="11" y="4" width="2" height="1" fill="#e88a3e"/>
<rect x="13" y="4" width="1" height="1" fill="#20242e"/>
<rect x="1" y="5" width="3" height="1" fill="#20242e"/>
<rect x="4" y="5" width="1" height="1" fill="#e88a3e"/>
<rect x="5" y="5" width="4" height="1" fill="#20242e"/>
<rect x="9" y="5" width="1" height="1" fill="#e88a3e"/>
<rect x="10" y="5" width="3" height="1" fill="#20242e"/>
<rect x="2" y="6" width="1" height="1" fill="#20242e"/>
<rect x="3" y="6" width="8" height="1" fill="#e88a3e"/>
<rect x="11" y="6" width="1" height="1" fill="#20242e"/>
<rect x="1" y="7" width="1" height="1" fill="#20242e"/>
<rect x="2" y="7" width="10" height="1" fill="#e88a3e"/>
<rect x="12" y="7" width="1" height="1" fill="#20242e"/>
<rect x="1" y="8" width="1" height="1" fill="#20242e"/>
<rect x="2" y="8" width="2" height="1" fill="#e88a3e"/>
<rect x="4" y="8" width="1" height="1" fill="#1a1a1a"/>
<rect x="5" y="8" width="4" height="1" fill="#e88a3e"/>
<rect x="9" y="8" width="1" height="1" fill="#1a1a1a"/>
<rect x="10" y="8" width="2" height="1" fill="#e88a3e"/>
<rect x="12" y="8" width="1" height="1" fill="#20242e"/>
<rect x="1" y="9" width="1" height="1" fill="#20242e"/>
<rect x="2" y="9" width="10" height="1" fill="#e88a3e"/>
<rect x="12" y="9" width="1" height="1" fill="#20242e"/>
<rect x="2" y="10" width="1" height="1" fill="#20242e"/>
<rect x="3" y="10" width="8" height="1" fill="#e88a3e"/>
<rect x="11" y="10" width="1" height="1" fill="#20242e"/>
<rect x="1" y="11" width="1" height="1" fill="#20242e"/>
<rect x="2" y="11" width="1" height="1" fill="#e88a3e"/>
<rect x="3" y="11" width="2" height="1" fill="#20242e"/>
<rect x="5" y="11" width="1" height="1" fill="#e88a3e"/>
<rect x="6" y="11" width="2" height="1" fill="#20242e"/>
<rect x="8" y="11" width="1" height="1" fill="#e88a3e"/>
<rect x="9" y="11" width="2" height="1" fill="#20242e"/>
<rect x="11" y="11" width="1" height="1" fill="#e88a3e"/>
<rect x="12" y="11" width="1" height="1" fill="#20242e"/>
<rect x="2" y="12" width="1" height="1" fill="#20242e"/>
<rect x="5" y="12" width="1" height="1" fill="#20242e"/>
<rect x="8" y="12" width="1" height="1" fill="#20242e"/>
<rect x="11" y="12" width="1" height="1" fill="#20242e"/>
</svg>
