<svg xmlns="http://www.w3.org/2000/svg" viewBox="0 0 14 14" shape-rendering="crispEdges">
<rect x="6" y="0" width="2" height="1" fill="#20242e"/>
<rect x="5" y="1" width="1" height="1" fill="#20242e"/>
<rect x="6" y="1" width="2" height="1" fill="#7cf5ff"/>
<rect x="8" y="1" width="1" height="1" fill="#20242e"/>
<rect x="5" y="2" width="1" height="1" fill="#20242e"/>
<rect x="6" y="2" width="2" height="1" fill="#7cf5ff"/>
<rect x="8" y="2" width="1" height="1" fill="#20242e"/>
<rect x="4" y="3" width="1" height="1" fill="#20242e"/>
<rect x="5" y="3" width="4" height="1" fill="#7cf5ff"/>
<rect x="9" y="3" width="1" height="1" fill="#20242e"/>
<rect x="3" y="4" width="1" height="1" fill="#20242e"/>
<rect x="4" y="4" width="6" height="1" fill="#7cf5ff"/>
<rect x="10" y="4" width="1" height="1" fill="#20242e"/>
<rect x="1" y="5" width="2" height="1" fill="#20242e"/>
<rect x="3" y="5" width="3" height="1" fill="#7cf5ff"/>
<rect x="6" y="5" width="2" height="1" fill="#ffffff"/>
<rect x="8" y="5" width="3" height="1" fill="#7cf5ff"/>
<rect x="11" y="5" width="2" height="1" fill="#20242e"/>
<rect x="0" y="6" width="1" height="1" fill="#20242e"/>
<rect x="1" y="6" width="4" height="1" fill="#7cf5ff"/>
<rect x="5" y="6" width="4" height="1" fill="#ffffff"/>
<rect x="9" y="6" width="4" height="1" fill="#7cf5ff"/>
<rect x="13" y="6" width="1" height="1" fill="#20242e"/>
<rect x="0" y="7" width="1" height="1" fill="#20242e"/>
<rect x="1" y="7" width="4" height="1" fill="#7cf5ff"/>
<rect x="5" y="7" width="4" height="1" fill="#ffffff"/>
<rect x="9" y="7" width="4" height="1" fill="#7cf5ff"/>
<rect x="13" y="7" width="1" height="1" fill="#20242e"/>
<rect x="1" y="8" width="2" height="1" fill="#20242e"/>
<rect x="3" y="8" width="3" height="1" fill="#7cf5ff"/>
<rect x="6" y="8" width="2" height="1" fill="#ffffff"/>
<rect x="8" y="8" width="3" height="1" fill="#7cf5ff"/>
<rect x="11" y="8" width="2" height="1" fill="#20242e"/>
<rect x="3" y="9" width="1" height="1" fill="#20242e"/>
<rect x="4" y="9" width="6" height="1" fill="#7cf5ff"/>
<rect x="10" y="9" width="1" height="1" fill="#20242e"/>
<rect x="4" y="10" width="1" height="1" fill="#20242e"/>
<rect x="5" y="10" width="4" height="1" fill="#7cf5ff"/>
<rect x="9" y="10" width="1" height="1" fill="#20242e"/>
<rect x="5" y="11" width="1" height="1" fill="#20242e"/>
<rect x="6" y="11" width="2" height="1" fill="#7cf5ff"/>
<rect x="8" y="11" width="1" height="1" fill="#20242e"/>
<rect x="5" y="12" width="1" height="1" fill="#20242e"/>
<rect x="6" y="12" width="2" height="1" fill="#7cf5ff"/>
<rect x="8" y="12" width="1" height="1" fill="#20242e"/>
<rect x="6" y="13" width="2" height="1" fill="#20242e"/>
</svg>
