<svg xmlns="http://www.w3.org/2000/svg" viewBox="0 0 14 14" shape-rendering="crispEdges">
<rect x="1" y="0" width="10" height="1" fill="#20242e"/>
<rect x="0" y="1" width="1" height="1" fill="#20242e"/>
<rect x="1" y="1" width="10" height="1" fill="#8a6ae8"/>
<rect x="11" y="1" width="1" height="1" fill="#20242e"/>
<rect x="0" y="2" width="1" height="1" fill="#20242e"/>
<rect x="1" y="2" width="2" height="1" fill="#8a6ae8"/>
<rect x="3" y="2" width="1" height="1" fill="#20242e"/>
<rect x="4" y="2" width="1" height="1" fill="#ffffff"/>
<rect x="5" y="2" width="1" height="1" fill="#20242e"/>
<rect x="6" y="2" width="1" height="1" fill="#ffffff"/>
<rect x="7" y="2" width="1" height="1" fill="#20242e"/>
<rect x="8" y="2" width="1" height="1" fill="#ffffff"/>
<rect x="9" y="2" width="2" height="1" fill="#8a6ae8"/>
<rect x="11" y="2" width="1" height="1" fill="#20242e"/>
<rect x="0" y="3" width="1" height="1" fill="#20242e"/>
<rect x="1" y="3" width="2" height="1" fill="#8a6ae8"/>
<rect x="3" y="3" width="1" height="1" fill="#20242e"/>
<rect x="4" y="3" width="1" height="1" fill="#ffffff"/>
<rect x="5" y="3" width="1" height="1" fill="#20242e"/>
<rect x="6" y="3" width="1" height="1" fill="#ffffff"/>
<rect x="7" y="3" width="1" height="1" fill="#20242e"/>
<rect x="8" y="3" width="1" height="1" fill="#ffffff"/>
<rect x="9" y="3" width="2" height="1" fill="#8a6ae8"/>
<rect x="11" y="3" width="1" height="1" fill="#20242e"/>
<rect x="0" y="4" width="1" height="1" fill="#20242e"/>
<rect x="1" y="4" width="2" height="1" fill="#8a6ae8"/>
<rect x="3" y="4" width="1" height="1" fill="#20242e"/>
<rect x="4" y="4" width="1" height="1" fill="#ffffff"/>
<rect x="5" y="4" width="1" height="1" fill="#20242e"/>
<rect x="6" y="4" width="1" height="1" fill="#ffffff"/>
<rect x="7" y="4" width="1" height="1" fill="#20242e"/>
<rect x="8" y="4" width="2" height="1" fill="#8a6ae8"/>
<rect x="10" y="4" width="1" height="1" fill="#20242e"/>
<rect x="0" y="5" width="1" height="1" fill="#20242e"/>
<rect x="1" y="5" width="2" height="1" fill="#8a6ae8"/>
<rect x="3" y="5" width="1" height="1" fill="#20242e"/>
<rect x="4" y="5" width="1" height="1" fill="#ffffff"/>
<rect x="5" y="5" width="1" height="1" fill="#20242e"/>
<rect x="6" y="5" width="1" height="1" fill="#ffffff"/>
<rect x="7" y="5" width="1" height="1" fill="#20242e"/>
<rect x="8" y="5" width="2" height="1" fill="#8a6ae8"/>
<rect x="10" y="5" width="1" height="1" fill="#20242e"/>
<rect x="0" y="6" width="1" height="1" fill="#20242e"/>
<rect x="1" y="6" width="2" height="1" fill="#8a6ae8"/>
<rect x="3" y="6" width="1" height="1" fill="#20242e"/>
<rect x="4" y="6" width="1" height="1" fill="#ffffff"/>
<rect x="5" y="6" width="1" height="1" fill="#20242e"/>
<rect x="6" y="6" width="1" height="1" fill="#ffffff"/>
<rect x="7" y="6" width="2" height="1" fill="#8a6ae8"/>
<rect x="9" y="6" width="1" height="1" fill="#20242e"/>
<rect x="0" y="7" width="1" height="1" fill="#20242e"/>
<rect x="1" y="7" width="2" height="1" fill="#8a6ae8"/>
<rect x="3" y="7" width="1" height="1" fill="#20242e"/>
<rect x="4" y="7" width="1" height="1" fill="#ffffff"/>
<rect x="5" y="7" width="1" height="1" fill="#20242e"/>
<rect x="6" y="7" width="1" height="1" fill="#ffffff"/>
<rect x="7" y="7" width="2" height="1" fill="#8a6ae8"/>
<rect x="9" y="7" width="1" height="1" fill="#20242e"/>
<rect x="0" y="8" width="1" height="1" fill="#20242e"/>
<rect x="1" y="8" width="2" height="1" fill="#8a6ae8"/>
<rect x="3" y="8" width="1" height="1" fill="#20242e"/>
<rect x="4" y="8" width="1" height="1" fill="#ffffff"/>
<rect x="5" y="8" width="2" height="1" fill="#8a6ae8"/>
<rect x="7" y="8" width="2" height="1" fill="#20242e"/>
<rect x="0" y="9" width="1" height="1" fill="#20242e"/>
<rect x="1" y="9" width="2" height="1" fill="#8a6ae8"/>
<rect x="3" y="9" width="1" height="1" fill="#20242e"/>
<rect x="4" y="9" width="2" height="1" fill="#8a6ae8"/>
<rect x="6" y="9" width="1" height="1" fill="#20242e"/>
<rect x="0" y="10" width="1" height="1" fill="#20242e"/>
<rect x="1" y="10" width="4" height="1" fill="#8a6ae8"/>
<rect x="5" y="10" width="1" height="1" fill="#20242e"/>
<rect x="0" y="11" width="1" height="1" fill="#20242e"/>
<rect x="1" y="11" width="3" height="1" fill="#8a6ae8"/>
<rect x="4" y="11" width="1" height="1" fill="#20242e"/>
<rect x="0" y="12" width="1" height="1" fill="#20242e"/>
<rect x="1" y="12" width="4" height="1" fill="#8a6ae8"/>
<rect x="5" y="12" width="1" height="1" fill="#20242e"/>
<rect x="1" y="13" width="4" height="1" fill="#20242e"/>
</svg>
